<?xml version="1.0" encoding="UTF-8" standalone="no"?>
<!DOCTYPE svg PUBLIC "-//W3C//DTD SVG 1.1//EN" "http://www.w3.org/Graphics/SVG/1.1/DTD/svg11.dtd">
<svg version="1.1" xmlns="http://www.w3.org/2000/svg" xmlns:xlink="http://www.w3.org/1999/xlink" preserveAspectRatio="xMidYMid meet" viewBox="170.39999999999998 479.30125 40.72374999999997 39.71855712890624"><defs><path d="M190.76 479.3C179.52 479.3 170.4 488.42 170.4 499.66C170.4 508.66 176.24 516.29 184.33 518.98C185.34 519.17 185.71 518.54 185.71 518C185.71 517.52 185.7 516.24 185.69 514.54C180.02 515.77 178.83 511.81 178.83 511.81C177.9 509.46 176.57 508.83 176.57 508.83C174.72 507.57 176.71 507.59 176.71 507.59C178.75 507.74 179.83 509.69 179.83 509.69C181.64 512.8 184.59 511.9 185.75 511.38C185.94 510.07 186.46 509.17 187.05 508.66C182.52 508.15 177.77 506.4 177.77 498.6C177.77 496.38 178.56 494.56 179.87 493.13C179.66 492.62 178.96 490.55 180.06 487.75C180.06 487.75 181.77 487.2 185.66 489.83C187.29 489.38 189.03 489.16 190.76 489.15C192.49 489.16 194.23 489.38 195.86 489.83C199.75 487.2 201.45 487.75 201.45 487.75C202.56 490.55 201.87 492.62 201.66 493.13C202.96 494.56 203.75 496.38 203.75 498.6C203.75 506.42 198.99 508.14 194.45 508.65C195.18 509.28 195.83 510.52 195.83 512.42C195.83 515.14 195.81 517.34 195.81 518C195.81 518.55 196.18 519.18 197.21 518.98C205.29 516.28 211.12 508.66 211.12 499.66C211.12 488.42 202.01 479.3 190.76 479.3" id="a22UZg7Ol"></path></defs><g visibility="inherit"><g visibility="inherit"><use xlink:href="#a22UZg7Ol" opacity="1" fill="#ffffff" fill-opacity="1"></use><g><use xlink:href="#a22UZg7Ol" opacity="1" fill-opacity="0" stroke="#000000" stroke-width="1" stroke-opacity="0"></use></g></g></g></svg>