<svg xmlns="http://www.w3.org/2000/svg" xmlns:xlink="http://www.w3.org/1999/xlink" version="1.1" x="0px" y="0px" viewBox="0 0 100 125" style="enable-background:new 0 0 100 100;" xml:space="preserve">
    <path d="M39.3,35.4c3.7,0,6.7-3,6.7-6.7c0-0.7-0.1-1.3-0.3-1.9c-2.4-2.1-5.3,0-5.5,0.1c-1.2,0.9-2.5,1.1-3.7,1.1  c-1.6,0-3.1-0.6-3.9-0.9c-0.1,0.5-0.2,1.1-0.2,1.6C32.5,32.4,35.6,35.4,39.3,35.4z"/>
    <path d="M88.3,29.2l-0.1-0.4c-0.2-0.6-0.5-1.1-0.9-1.5l-24-24.3c-0.3-0.3-0.6-0.5-1-0.7L61,2L23,1.9c-6.2,0-11.2,5-11.2,11.2v73.4  c0,6.2,5,11.2,11.2,11.2h54.2c6.2,0,11.2-5,11.2-11.2V30.3L88.3,29.2z M63.4,14.8L76,27.5h-9.4c-1.7,0-3.1-1.4-3.1-3.1V14.8z   M39.3,20c4.8,0,8.7,3.9,8.7,8.7c0,4.8-3.9,8.7-8.7,8.7c-4.8,0-8.7-3.9-8.7-8.7C30.6,23.9,34.5,20,39.3,20z M40.5,45.8l-3,2.1  l0.9-3.9l-1.3-1.4c0,0-0.1-0.1,0-0.2l0.8-1.9c0-0.1,0.1-0.1,0.1-0.1h2.4c0.1,0,0.1,0,0.1,0.1l0.8,1.9c0,0.1,0,0.1,0,0.2l-1.3,1.5  L40.5,45.8z M23.7,51.9V48c0-4.2,3.4-7.5,7.5-7.5h0.3l3.3,11.5H23.7z M36.5,51.9l0.6-2.4l3.7-2.6l0.5,2.1l-4.2,2.9H36.5z M39,51.9  l2.6-1.8l0.4,1.8H39z M47.1,40.4h0.2c4.2,0,7.5,3.4,7.5,7.5v3.9H43.6L47.1,40.4z M77.6,85.2H62.4v-3.7h15.2V85.2z M77.6,75.5H49.3  v-3.7h28.3V75.5z M77.6,66.1H49.3v-3.7h28.3V66.1z"/>
    <text x="0" y="115" fill="#000000" font-size="5px" font-weight="bold" font-family="'Helvetica Neue', Helvetica, Arial-Unicode, Arial, Sans-serif">Created by Aneeque Ahmed</text><text x="0" y="120" fill="#000000" font-size="5px" font-weight="bold" font-family="'Helvetica Neue', Helvetica, Arial-Unicode, Arial, Sans-serif">from the Noun Project</text>
</svg>

