<?xml version="1.0" encoding="UTF-8" standalone="no"?>
<!-- Created with Inkscape (http://www.inkscape.org/) -->
<svg id="svg4884" xmlns:rdf="http://www.w3.org/1999/02/22-rdf-syntax-ns#" xmlns="http://www.w3.org/2000/svg" height="343.19" width="437.62" version="1.1" xmlns:cc="http://creativecommons.org/ns#" xmlns:dc="http://purl.org/dc/elements/1.1/" viewBox="0 0 437.621 343.18701">
 <metadata id="metadata4889">
  <rdf:RDF>
   <cc:Work rdf:about="">
    <dc:format>image/svg+xml</dc:format>
    <dc:type rdf:resource="http://purl.org/dc/dcmitype/StillImage"/>
    <dc:title/>
   </cc:Work>
  </rdf:RDF>
 </metadata>
 <g id="layer2" transform="translate(0 -736.81)">
  <path id="path5089" d="m397.56 736.81c-0.7229 0.00023-1.4455 0.18664-2 0.55664l-148.01 98.748-73.43-48.873c-0.9192-0.61179-2.3979-0.61863-3.3125 0l-35.09 23.734c-1.419 0.9598-3.2852 2.24-3.2852 3.9531v20.25l5.5 3.6719v-19.422l31.812 21.438v19.125l-27.244-18.092 32.807 21.9v-19.434l32.062 21.5v19.312l-27.188-18.125 47.75 31.875-15.186-10.289v-19.27l32.17 21.58-0.1 43.137-14.197-9.3437-0.062-21.377 0.062 27.875 14.375 9.5625c1.4744 0.9808 3.8389 0.982 5.3125 0l107-71.301v42.869c0 0.3436-0.2456 0.6917-0.5312 0.8828l-34.205 22.893c-1.4508 0.9709-2.6992 2.7425-2.6992 4.4882v48.48c0 1.2135 1.0524 2.3275 2.0625 3l72.938 48.562c1.5434 1.0276 4.0214 1.031 5.5625 0l35.688-23.875c0.7929-0.5305 1.5-1.4835 1.5-2.4375v-249.5c0-1.2792-0.8746-2.6008-1.9375-3.3125l-36.125-24.188c-0.5539-0.3709-1.2771-0.55687-2-0.55664zm-217.38 130.24-4.875-3.2539 4.875 3.25zm-37.682-25.154-4.5684-3.0488v0.016l4.5684 3.0332zm255.07-99.189 32.438 21.656-32.527 21.566-32.35-21.656 32.44-21.566zm-37.096 24.904 32.439 21.654-32.527 21.568-32.35-21.656 32.438-21.566zm71.98 1.8691v43.398l-31.908 20.949v-43.223l31.908-21.125zm-392.24 5.03c-0.6928 0.0135-1.3848 0.20529-1.916 0.56054l-35.922 24.03c-1.1569 0.7737-2.3681 2.0476-2.3672 3.4394l0.16835 249.66c0.0005 0.7904 0.3598 1.7014 1.0156 2.1426l37.557 25.264c0.8265 0.556 2.1594 0.5523 2.9883 0l187.39-124.87c0.8329-0.5548 1.4102-1.6496 1.4102-2.6504v-49.521c0-1.2641-0.9778-2.5016-2.0293-3.2032l-186.38-124.34c-0.5317-0.35467-1.2252-0.51939-1.918-0.50586zm0.3535 5.9824 32.125 21.5-32.375 22-32.125-21.875 32.375-21.625zm132.06 12.125 32.5 21.5-32.5 21.812-32.5-21.562 32.5-21.75zm149.82 0.0332 32.615 21.744-32.439 21.566-32.438-21.744 32.262-21.566zm72.301 1.9453v43.398l-31.908 20.947v-43.221l31.908-21.125zm-317.14 10.881 32.309 21.539-32.022 21.684-32.453-21.396 32.166-21.826zm-72.012 1.4004 32.021 21.252v43.652l-32.021-21.682v-43.223zm204.53 10.678 32.625 21.75-32.688 21.688-32.438-21.688 32.5-21.75zm75.016 0.1094 32.527 21.744-32.438 21.478-32.352-21.656 32.262-21.566zm147.17 1.9453v43.221l-31.908 21.303-0.2656-43.31 32.174-21.213zm-75.059 0.01v43.25l-31.875 21.25v-43.188l31.875-21.312zm-241.64 11.082 32.309 21.539-32.022 21.684-32.453-21.396 32.166-21.826zm-72.959 1.3907 32.021 21.252v43.652l-32.021-21.684v-43.221zm204.85 10.527 32.625 21.75-32.625 21.75-32.375-21.625 32.375-21.875zm72.25 1.8125v43.688l-31.75 21.125-0.062-43.438 31.812-21.375zm75.063 0-0.1875 39.625-29.5-19.75 29.688-19.875zm-242.25 11.305 32.309 21.252-32.309 21.971-31.592-21.684 31.592-21.539zm-147.55 1.4316 32.022 21.252v43.652l-32.022-21.682v-43.223zm75.641 0.7071 32.022 21.252v43.652l-32.022-21.682v-43.223zm351.76 11.299v43.223l-31.908 21.303-0.2656-43.311 32.174-21.215zm-69.658 0.2578 31.875 21.375 0.1875 43.562-32.063-21.688v-43.25zm-80.562 0.062v43.438l-31.812 21.188 0.125-43.375 31.688-21.25zm-92.004 11.084 32.451 21.396-32.309 21.682-31.877-21.539 31.734-21.539zm-147.18 1.8672 29.58 19.816-29.58 19.672v-39.488zm75.1 0 29.58 19.672-29.58 19.529v-39.201zm111.29 17.857c0.2794 0.3604 0.5226 0.75 0.7129 1.1582-0.1902-0.4082-0.4336-0.7978-0.7129-1.1582zm-76.832 5.2617 32.451 21.826-32.022 21.396-32.596-21.684 32.166-21.539zm-147.4 1.1231 32.022 21.252v43.652l-32.022-21.684v-43.221zm219.91 0.457v43.508l-31.877 21.396v-43.223l31.877-21.682zm-150.05 0.2871v43.078l-31.879 21.107v-42.934l31.879-21.252zm5.3125 0 29.58 19.672-29.58 19.816v-39.488zm352.37 11.527v43.221l-31.908 21.303-0.2656-43.311 32.174-21.213zm-70.002 0.3633 31.875 21.375 0.1875 43.562-32.063-21.688v-43.25zm-5.5274 0.08 0.1778 39.951-29.787-19.977 29.609-19.975zm-241.95 11.004 32.596 21.971-32.164 21.682-32.74-21.971 32.309-21.682zm72.613 1.6582v43.51l-31.877 21.394v-43.221l31.877-21.684zm137.11 12.395 31.875 21.375 0.1875 43.562-32.062-21.687v-43.25zm-174.86 12.771v43.51l-31.877 21.394v-43.221l31.877-21.684zm-69.326 0.1719 29.438 19.959-29.438 19.385v-39.344zm-5.8867 0.1426v43.223l-31.734 21.252v-43.223l31.734-21.252zm-69.766 0.047 32.022 21.252v43.652l-32.022-21.682v-43.223zm357.59 11.73 31.875 21.375 0.1875 43.562-32.063-21.688v-43.25zm70.08 0.1933v43.223l-31.908 21.301-0.2657-43.309 32.174-21.215zm-320.49 13.336v43.51l-31.877 21.396v-43.223l31.877-21.684zm-36.811 24.463v43.51l-31.879 21.394v-43.221l31.879-21.684zm-69.961 0.059 32.022 21.252v43.652l-32.022-21.684v-43.221z" fill-rule="evenodd"/>
 </g>
</svg>
