<?xml version="1.0" encoding="UTF-8" standalone="no"?>
<!DOCTYPE svg PUBLIC "-//W3C//DTD SVG 1.1//EN" "http://www.w3.org/Graphics/SVG/1.1/DTD/svg11.dtd">
<svg version="1.1" xmlns="http://www.w3.org/2000/svg" xmlns:xlink="http://www.w3.org/1999/xlink" preserveAspectRatio="xMidYMid meet" viewBox="170.39999999999998 134.30124999999998 40.72374999999997 39.71855712890621"><defs><path d="M190.76 134.3C179.52 134.3 170.4 143.42 170.4 154.66C170.4 163.66 176.24 171.29 184.33 173.98C185.34 174.17 185.71 173.54 185.71 173C185.71 172.52 185.7 171.24 185.69 169.54C180.02 170.77 178.83 166.81 178.83 166.81C177.9 164.46 176.57 163.83 176.57 163.83C174.72 162.57 176.71 162.59 176.71 162.59C178.75 162.74 179.83 164.69 179.83 164.69C181.64 167.8 184.59 166.9 185.75 166.38C185.94 165.07 186.46 164.17 187.05 163.66C182.52 163.15 177.77 161.4 177.77 153.6C177.77 151.37 178.56 149.56 179.87 148.13C179.66 147.62 178.96 145.55 180.06 142.75C180.06 142.75 181.77 142.2 185.66 144.83C187.29 144.38 189.03 144.16 190.76 144.15C192.49 144.16 194.23 144.38 195.86 144.83C199.75 142.2 201.45 142.75 201.45 142.75C202.56 145.55 201.87 147.62 201.66 148.13C202.96 149.56 203.75 151.37 203.75 153.6C203.75 161.42 198.99 163.14 194.45 163.64C195.18 164.27 195.83 165.52 195.83 167.42C195.83 170.14 195.81 172.33 195.81 173C195.81 173.55 196.18 174.18 197.21 173.98C205.29 171.28 211.12 163.66 211.12 154.66C211.12 143.42 202.01 134.3 190.76 134.3" id="d1f4GIlGl"></path></defs><g visibility="inherit"><g visibility="inherit"><use xlink:href="#d1f4GIlGl" opacity="1" fill="#1b1817" fill-opacity="1"></use><g><use xlink:href="#d1f4GIlGl" opacity="1" fill-opacity="0" stroke="#000000" stroke-width="1" stroke-opacity="0"></use></g></g></g></svg>
